<?xml version="1.0" standalone="no"?>
<!DOCTYPE svg PUBLIC "-//W3C//DTD SVG 20010904//EN"
 "http://www.w3.org/TR/2001/REC-SVG-20010904/DTD/svg10.dtd">
<svg version="1.0" xmlns="http://www.w3.org/2000/svg"
 width="1024.000000pt" height="1024.000000pt" viewBox="0 0 1024.000000 1024.000000"
 preserveAspectRatio="xMidYMid meet">

<g transform="translate(0.000000,1024.000000) scale(0.100000,-0.100000)"
fill="#000000" stroke="none">
<path d="M0 5120 l0 -5120 5120 0 5120 0 0 5120 0 5120 -5120 0 -5120 0 0
-5120z m5477 2568 c175 -140 624 -498 998 -796 374 -298 694 -555 712 -572 42
-39 49 -78 25 -133 -26 -59 -80 -99 -140 -105 -44 -4 -52 -1 -107 42 -33 25
-72 56 -87 67 l-28 20 0 -808 c0 -750 -2 -810 -18 -829 -29 -36 -57 -44 -161
-44 l-101 0 0 953 0 952 -358 285 c-196 157 -518 415 -716 573 -197 159 -364
291 -371 293 -12 5 -197 -141 -1200 -941 -132 -106 -246 -199 -253 -207 -10
-12 -12 -215 -10 -962 l3 -948 -113 4 c-110 3 -114 4 -138 31 l-24 28 0 810
c0 445 -2 809 -5 809 -2 0 -41 -30 -86 -66 -80 -64 -84 -66 -130 -62 -103 10
-182 116 -150 200 7 19 187 169 563 469 304 242 760 605 1012 807 253 202 469
373 480 380 48 29 75 12 403 -250z m-852 -1003 c106 -30 204 -117 263 -234 34
-70 37 -80 37 -170 0 -53 -3 -116 -8 -141 l-7 -45 126 -130 127 -130 174 180
c96 99 188 200 204 224 88 134 -24 269 -282 341 -40 11 -80 27 -89 36 -13 14
-13 17 5 30 29 22 142 54 211 61 83 8 212 -20 294 -63 64 -33 142 -98 313
-260 l87 -83 0 -54 c0 -49 3 -56 43 -95 35 -35 50 -42 81 -42 34 0 45 -7 92
-57 79 -84 77 -93 -48 -219 -92 -94 -105 -104 -138 -104 -30 0 -44 9 -90 55
-49 50 -54 59 -51 94 2 34 -3 46 -36 82 -44 48 -102 78 -154 79 -54 0 -107
-41 -287 -222 l-163 -165 204 -199 c113 -109 261 -251 329 -314 155 -143 178
-175 178 -250 0 -31 -8 -72 -19 -95 -19 -43 -78 -100 -118 -116 -42 -16 -135
-11 -168 9 -17 11 -87 79 -155 153 -390 417 -807 842 -918 934 -31 26 -35 27
-77 16 -235 -59 -489 90 -549 324 -24 89 -18 245 8 245 6 0 65 -54 131 -121
66 -66 133 -127 149 -136 54 -28 90 -11 193 91 92 91 93 92 93 140 l0 49 -135
137 c-74 75 -135 141 -135 147 0 14 27 23 95 33 59 8 122 3 190 -15z m264
-1269 l114 -114 -20 -26 c-65 -81 -561 -588 -591 -602 -56 -26 -112 -15 -172
36 -78 66 -109 144 -79 203 14 27 610 616 624 616 6 1 62 -50 124 -113z m311
-2046 l0 -580 -99 0 c-109 0 -111 1 -111 66 l0 35 -47 -39 c-75 -62 -108 -75
-203 -80 -116 -5 -183 20 -260 97 -96 96 -135 213 -128 376 8 156 62 270 164
347 71 55 129 71 228 66 91 -5 152 -27 207 -75 l34 -31 -3 199 -4 199 111 0
111 0 0 -580z m-3540 345 l0 -225 225 0 225 0 0 225 0 226 113 -3 112 -3 3
-572 2 -573 -115 0 -115 0 0 245 0 245 -225 0 -225 0 0 -245 0 -245 -110 0
-110 0 0 575 0 575 110 0 110 0 0 -225z m4888 -2 l2 -223 235 0 235 0 0 225 0
225 110 0 110 0 0 -575 0 -575 -110 0 -110 0 0 245 0 245 -235 0 -235 0 0
-245 0 -245 -115 0 -115 0 0 575 0 576 113 -3 112 -3 3 -222z m2096 131 c3 -9
6 -58 6 -110 l0 -94 95 0 95 0 0 -90 0 -90 -96 0 -95 0 3 -236 3 -236 25 -20
c20 -16 35 -19 80 -15 30 2 63 8 73 12 15 6 17 -1 17 -78 l0 -85 -47 -16 c-54
-18 -160 -21 -218 -5 -55 15 -119 83 -133 142 -8 28 -12 139 -12 291 l0 246
-65 0 -65 0 0 90 0 90 60 0 60 0 0 99 0 100 53 5 c28 3 66 8 82 9 62 8 73 7
79 -9z m-5562 -219 c67 -33 108 -73 139 -133 24 -46 24 -51 27 -379 l3 -333
-94 0 c-106 0 -107 1 -107 72 l0 40 -54 -49 c-67 -61 -117 -77 -224 -71 -172
10 -270 113 -260 273 6 85 34 142 87 179 68 47 133 62 364 81 l77 7 0 42 c0
82 -59 134 -153 135 -40 1 -94 -22 -114 -48 -7 -9 -17 -33 -23 -54 -9 -31 -14
-36 -33 -32 -12 2 -49 9 -82 15 -100 19 -98 17 -90 58 16 83 84 165 172 204
96 42 273 39 365 -7z m977 0 c29 -16 68 -47 87 -68 61 -72 64 -94 64 -454 l0
-324 -102 3 -103 3 -5 295 c-5 271 -7 298 -25 327 -28 45 -71 67 -130 67 -51
0 -109 -23 -133 -53 -46 -58 -47 -64 -52 -356 l-5 -280 -100 0 -100 0 -5 428
-5 427 98 0 c94 0 97 -1 97 -22 0 -13 3 -33 6 -45 6 -22 8 -21 51 17 64 56
110 70 218 67 78 -2 97 -7 144 -32z m1488 3 c5 -7 40 -105 78 -218 38 -113 83
-244 100 -291 l30 -87 64 187 c35 102 81 239 103 304 l40 117 109 0 c108 0
109 0 109 -24 0 -13 -31 -107 -69 -208 -218 -579 -295 -777 -316 -814 -63
-109 -165 -161 -295 -151 -111 9 -110 8 -109 81 1 97 3 99 93 100 71 1 80 3
101 28 12 14 31 48 41 74 l18 48 -31 85 c-17 47 -57 151 -88 231 -130 335
-195 513 -195 531 0 17 8 19 104 19 71 0 106 -4 113 -12z m2103 -265 c0 -153
5 -294 10 -314 13 -46 44 -74 97 -88 89 -24 178 27 202 116 7 22 11 145 11
301 l0 262 110 0 110 0 0 -430 0 -431 -97 3 -97 3 -10 48 -11 49 -30 -32 c-62
-66 -156 -94 -262 -79 -110 16 -180 67 -225 164 -22 48 -23 62 -26 363 -2 172
-1 320 2 328 4 11 28 14 111 14 l105 0 0 -277z"/>
<path d="M5735 4977 c-53 -45 -40 -148 22 -176 76 -35 163 18 163 99 0 33 -6
48 -29 71 -25 24 -38 29 -80 29 -37 0 -56 -6 -76 -23z"/>
<path d="M4705 3466 c-83 -36 -130 -130 -128 -258 1 -92 34 -172 86 -213 33
-24 114 -48 139 -41 7 2 25 7 40 10 38 9 95 61 120 110 14 27 22 67 26 121 8
134 -35 226 -123 266 -47 22 -117 24 -160 5z"/>
<path d="M2915 3170 c-142 -21 -195 -57 -195 -133 0 -69 23 -90 103 -95 36 -2
81 1 100 7 52 18 103 78 116 140 19 87 17 91 -31 90 -24 -1 -65 -5 -93 -9z"/>
</g>
</svg>
